<svg xmlns="http://www.w3.org/2000/svg" viewBox="0 0 850 850"><defs><style>.cls-1{fill:#a4b772;}.cls-1,.cls-2,.cls-4{stroke:#231f20;stroke-miterlimit:10;stroke-width:20px;}.cls-2{fill:none;stroke-linecap:round;}.cls-3{fill:#231f20;}.cls-4{fill:#b2cc7f;}</style></defs><title>Artboard 1</title><g id="Layer_1" data-name="Layer 1"><path class="cls-1" d="M811.68,622.65C778.11,734.66,683.62,788,571.19,777.87c-118.5-10.65-195.94-89.21-206.1-205.15-9-102.83,57.88-172.49,101-255.61,49.74-96,57.62-179.78,163.44-187.81C738.88,121,722,222,756.49,332.06,780.76,409.44,835,544.74,811.68,622.65Z"/><path class="cls-2" d="M504.48,437.19a33.11,33.11,0,0,1,65.95,5.93"/><path class="cls-2" d="M632.83,448.73a33.11,33.11,0,0,1,65.95,5.93"/><path class="cls-3" d="M586.86,610.28a64.44,64.44,0,0,0,69.21-52.89,5.14,5.14,0,0,0-4.6-6L533.78,540.81a5.14,5.14,0,0,0-5.6,5.08A64.44,64.44,0,0,0,586.86,610.28Z"/><path class="cls-3" d="M655.5,134.38l-16.62-1.49a9.82,9.82,0,0,1-8.85-11,113.8,113.8,0,0,1,13-40.6,127.75,127.75,0,0,1,24.86-32.08,9.79,9.79,0,0,1,13.78.4l10.06,10.54A9.8,9.8,0,0,1,691,74.36a74.19,74.19,0,0,0-17.18,21.27,65.05,65.05,0,0,0-7.65,29.27A9.8,9.8,0,0,1,655.5,134.38Z"/></g><g id="Layer_1_copy" data-name="Layer 1 copy"><path class="cls-4" d="M489,576.89c-10.45,116.46-92.33,187.64-204.5,200.27C166.23,790.47,74.61,729,41.43,617.48,12,518.54,63.56,436.89,89.09,346.83c29.49-104,20.41-187.68,122.48-216.75C317.09,100,320.77,202.39,376.64,303.26,415.93,374.2,496.23,495.87,489,576.89Z"/><path class="cls-2" d="M150.82,456.76a33.11,33.11,0,0,1,65.8-7.41"/><path class="cls-2" d="M278.88,442.34a33.11,33.11,0,0,1,65.8-7.41"/><path class="cls-3" d="M266.22,609.82a64.44,64.44,0,0,0,57.2-65.68,5.14,5.14,0,0,0-5.71-5L200.3,552.41a5.14,5.14,0,0,0-4.46,6.1A64.44,64.44,0,0,0,266.22,609.82Z"/><path class="cls-3" d="M238.08,129.83l-16.58,1.87a9.82,9.82,0,0,1-10.88-9,113.8,113.8,0,0,1,4.58-42.38,127.75,127.75,0,0,1,17.93-36.41,9.79,9.79,0,0,1,13.58-2.37l12,8.3a9.8,9.8,0,0,1,2.18,14,74.19,74.19,0,0,0-12.57,24.28,65.05,65.05,0,0,0-1.62,30.21A9.8,9.8,0,0,1,238.08,129.83Z"/></g></svg>