<svg id="Layer_1_copy" data-name="Layer 1 copy" xmlns="http://www.w3.org/2000/svg" viewBox="0 0 500 800"><defs><style>.cls-1,.cls-2{fill:none;stroke:#fff;stroke-miterlimit:10;stroke-width:20px;}.cls-2{stroke-linecap:round;}.cls-3{fill:#fff;}</style></defs><title>Artboard 1</title><path class="cls-1" d="M475.26,591.37C452.58,706.08,363.64,768.21,250.76,768.93c-119,.76-203.6-70-224.82-184.44C7.12,483,67,407.25,101.92,320.38,142.23,220.06,142,135.91,246.61,117.77,354.7,99,347.55,201.21,392.46,307.41,424,382.1,491,511.58,475.26,591.37Z"/><path class="cls-2" d="M151.7,436.21a33.11,33.11,0,0,1,66.21-.42"/><path class="cls-2" d="M280.56,435.39a33.11,33.11,0,0,1,66.21-.42"/><path class="cls-3" d="M250.29,600.61a64.44,64.44,0,0,0,63.82-59.28A5.14,5.14,0,0,0,309,535.8l-118.15.75a5.14,5.14,0,0,0-5.08,5.6A64.44,64.44,0,0,0,250.29,600.61Z"/><path class="cls-3" d="M273,120.32l-16.69.11a9.82,9.82,0,0,1-9.87-10.08,113.8,113.8,0,0,1,9-41.66,127.75,127.75,0,0,1,21.67-34.32,9.79,9.79,0,0,1,13.75-.92l11,9.52a9.8,9.8,0,0,1,.68,14.19A74.19,74.19,0,0,0,287.54,80a65.05,65.05,0,0,0-4.8,29.87A9.8,9.8,0,0,1,273,120.32Z"/></svg>